<svg xmlns="http://www.w3.org/2000/svg" viewBox="0 0 1680 273.42"><defs><style>.cls-1{fill:#1e161e;opacity:0.3;}</style></defs><title>Asset 6</title><g id="Layer_2" data-name="Layer 2"><g id="Layer_1-2" data-name="Layer 1"><path class="cls-1" d="M0,273.4V6.4c12.79.21,15,2,25.71,4,32.53,6.22,64.53,15.49,97.45,19.61,47.07,5.89,95.38,1.2,142.48-1.84C385.51,20.46,505.53-1,625.38,14.3c67.45,8.59,133.48,22.55,201.73,23.94a1267.81,1267.81,0,0,0,154-6.69c59.58-6,118.66-16.73,178.21-22.63,52.23-5.18,103.19,4,154.45,12.78C1470.23,48.58,1596-9.6,1680,1.4v272s-1462.12.05-1479,0C191.2,273.37,0,273.4,0,273.4Z"/></g></g></svg>