<svg xmlns="http://www.w3.org/2000/svg" viewBox="0 0 344.99 374.56"><defs><style>.cls-1{fill:#845284;}</style></defs><title>Asset 4</title><g id="Layer_2" data-name="Layer 2"><g id="Layer_1-2" data-name="Layer 1"><path class="cls-1" d="M4.61,51.11c9.23-2.22,18.78,2,22.13,3.49,41.77,18.49,32.72,83,53.38,94.25C115.78,168.29,158.9,73.29,173,48.59c9.7-17,23.39-46.26,46-48.43,25.68-2.46,30.9,24.18,30.81,43.91-.13,28.64-9,52.16-20.59,77.41-12.17,26.63-45.79,76.57-41.87,106.81,7,54.26,111.08-29,141.2-17.3,37.14,14.48,2.36,77-15.7,95.74-20.31,21.12-63.45,56.39-91.27,63.71-31.77,8.35-40.58,1.42-114.29,1.44-83.35,0-121.16,1.29-102.66,1.29C10.14,373.17,4.61,51.11,4.61,51.11Z"/></g></g></svg>