<svg xmlns="http://www.w3.org/2000/svg" viewBox="0 0 852.96 387"><defs><style>.cls-1{opacity:0.25;}.cls-2{fill:#7c6687;}.cls-3{fill:#7a4d78;}.cls-4{fill:#231723;}.cls-5{fill:#2d232b;}.cls-6{fill:#57395b;}</style></defs><title>Asset 3</title><g id="Layer_2" data-name="Layer 2"><g id="Layer_1-2" data-name="Layer 1"><g class="cls-1"><path class="cls-2" d="M5.11,387c-13.72-26.95.82-49,36-80.08,21.6-19.1,35.05-17,90.73-43.3,95.48-45.05,107.27-75.34,139.8-70.8,51.84,7.23,48.11,87.88,100.91,94.86,32.55,4.3,46.3-24.73,104.61-48.12,60.53-24.27,174.43-64.38,239.67-33.63C776,233.82,796.88,338.75,774,387Z"/></g><path class="cls-3" d="M181.68,336.54c-4.74-2-76.13-32.45-110.11-78.39A1.38,1.38,0,0,1,73.1,256c19.6,6.26,107.75,35.27,159.89,66.61a1.38,1.38,0,0,0,1.84-2c-17.18-25-85.86-130.07-80.91-208.36a1.38,1.38,0,0,1,2.29-.93c11.66,10.45,69.26,65.4,96.87,154.88a1.38,1.38,0,0,0,2.69-.51c-1.89-26.26-4.94-85,1.12-132.23a1.38,1.38,0,0,1,2.66-.31c6.55,17.81,27.95,79,34.06,134.15a1.38,1.38,0,0,0,2.73.06c3.44-23.48,12.55-76.29,29.19-114a1.38,1.38,0,0,1,2.6.22c3.08,12.37,12.54,54.53,15.62,117.1a1.38,1.38,0,0,0,2.7.31c3.51-12,10.94-35.15,21.83-57a1.39,1.39,0,0,1,2.62.49c1.28,14.46,3.47,61.42-14.11,121a1.39,1.39,0,0,1-1.33,1H182.21A1.23,1.23,0,0,1,181.68,336.54Z"/><path class="cls-4" d="M534.33,380.47c-18.44-27.72-45.5-48.5-69.61-71-24.7-23-55.39-51.27-66.57-84-3.32-9.72-6.56-23.57-1.08-33.14,6.68-11.66,21.64-7.78,31.84-3.69,32.3,12.93,54.88,43.69,78.62,67.74,15.37,15.58,31,32.68,50.3,43.45,6.74,3.75,16.8,8.68,23.76,2.78,10.49-8.88.53-28.11-3.31-37.9-12.11-30.82-31.91-57.35-46.82-86.78-7.56-14.92-34.1-61.76-10.39-74.34,26-13.78,48.34,29.58,56.82,46.12,7.44,14.52,14,29.44,21.1,44.12,7.46,15.43,12.81,32.39,21.68,47.06,4.61,7.61,17.41,25.29,25.75,12.42,5.49-8.47,4.43-22.64,4.23-32.25-1-46-.43-91.67,7.63-137.16,3.81-21.5,8.75-45.24,21.24-63.53,5.55-8.12,13.54-15.61,24.12-13.78,16,2.77,16.43,22.16,16.57,35,.49,43.9-8,87-5.47,131,1,17.44,2.74,34.83,4.16,52.24,1.08,13.43,1.56,29,7.59,41.37,5.58,11.39,16.87,11.71,25.16,2.59,7.62-8.38,10.15-19.9,15-29.81,9.39-19,25.42-47.81,47-54.57,12.41-3.89,24.77,3.87,30.18,15.19,6.5,13.63.39,30.24-5.39,43-13.29,29.32-34.57,55-44.87,85.69-5.32,15.91-6.44,34.78-7.08,51.43Z"/><path class="cls-4" d="M531,386.77,529.09,384c-13.78-20.71-33.05-37.89-51.69-54.51-5.61-5-11.41-10.17-17-15.36l-1.29-1.2c-24.7-23-55.45-51.71-66.95-85.41-5.57-16.35-5.77-29.23-.58-38.3,8.58-15,26.29-11.75,39.64-6.4,26.55,10.62,46.28,32.07,65.36,52.8,5.29,5.75,10.28,11.17,15.4,16.36q2.58,2.61,5.17,5.27c13.45,13.75,27.36,28,43.72,37.1,5.82,3.25,13,6.57,16.62,3.48,5.73-4.85,0-18.61-3.47-26.83-.61-1.44-1.16-2.77-1.63-4-7.17-18.26-17.41-35.48-27.32-52.13-6.54-11-13.31-22.37-19.26-34.11-.52-1-1.13-2.21-1.81-3.53-10-19.33-33.47-64.6-5.91-79.22a27.11,27.11,0,0,1,21.54-2.08c21.15,6.65,37,37.65,43.83,50.89,4.68,9.13,9.07,18.52,13.31,27.61,2.55,5.47,5.19,11.13,7.86,16.64,2.91,6,5.53,12.31,8.05,18.39,4,9.57,8.1,19.47,13.35,28.15s11,13.91,13.36,13.94h0c.38,0,1.06-.67,1.72-1.68,3.86-6,3.54-17.29,3.3-25.56,0-1.09-.06-2.14-.08-3.14-.92-44.06-.62-91.32,7.73-138.39,4-22.84,9.1-46.74,22.24-66C685.28.77,696.9-1,704.71.36c21.38,3.7,21.65,28.08,21.8,41.17.22,20-1.41,40-3,59.32-1.91,23.39-3.88,47.57-2.49,71.42.69,12,1.75,24.21,2.78,36q.69,8,1.36,16.06c.13,1.61.25,3.24.37,4.9.9,12,1.82,24.44,6.61,34.21,1.1,2.25,3,5,6.06,5.44,2.73.39,5.93-1.18,8.78-4.32,4.4-4.83,6.93-11.22,9.61-18,1.36-3.42,2.76-6.95,4.44-10.37,10.5-21.27,27.19-50.4,50.78-57.79,14.58-4.57,30.45,3.21,37.74,18.49,7.53,15.77,1.1,34.09-5.34,48.29-5.73,12.66-13,24.69-19.93,36.33-9.74,16.25-18.95,31.6-24.7,48.76-5.05,15.08-6.14,33.55-6.76,49.67l-.23,6ZM411.59,190.83c-6.42,0-8.26,3.22-9.06,4.61-2.28,4-3.85,12.06,1.58,28,10.48,30.71,39.94,58.19,63.62,80.26l1.29,1.2c5.46,5.1,11.2,10.22,16.75,15.17,18.41,16.41,37.42,33.36,51.88,54.12l242.86-.71c.73-15.47,2.22-32.43,7.15-47.15,6.18-18.46,16.17-35.12,25.84-51.24,6.79-11.33,13.82-23,19.26-35,5.31-11.72,10.73-26.59,5.44-37.68-5.18-10.84-15.3-14.19-22.61-11.9-21.19,6.64-37.8,40.29-43.26,51.35-1.46,3-2.71,6.11-4,9.44-3,7.52-6,15.29-12,21.82-5.7,6.27-12.95,9.3-19.87,8.31-6.61-.93-12.15-5.33-15.6-12.36-5.86-12-6.91-26.23-7.85-38.82-.12-1.63-.24-3.23-.37-4.81-.43-5.33-.89-10.66-1.35-16-1-11.91-2.1-24.22-2.81-36.39C707,148.27,709,123.65,711,99.83c1.56-19.06,3.17-38.76,2.95-58.16-.19-17.09-2.11-27.3-11.36-28.9s-15.69,8-17.84,11.13C673,41.07,668.29,63.49,664.48,85,656.32,131,656,177.5,657,220.91c0,1,0,2,.07,3,.29,9.92.68,23.52-5.32,32.76-4,6.24-9,7.5-12.48,7.43-10.39-.16-19.46-12.61-23.94-20-5.73-9.49-10-19.83-14.19-29.83-2.46-5.91-5-12-7.76-17.74s-5.37-11.28-7.94-16.79c-4.19-9-8.53-18.28-13.1-27.2-5.55-10.82-20.28-39.55-36.4-44.62A14.75,14.75,0,0,0,524,109.13c-16.55,8.78,3.6,47.67,11.19,62.31.7,1.35,1.33,2.57,1.86,3.63,5.76,11.36,12.41,22.55,18.85,33.36,10.16,17.09,20.67,34.76,28.21,54,.44,1.12,1,2.37,1.53,3.71,4.77,11.4,12.76,30.49,0,41.3-10.77,9.12-25.38,1-30.88-2.1-17.95-10-32.51-24.89-46.59-39.29-1.71-1.75-3.42-3.5-5.13-5.22-5.28-5.35-10.58-11.11-15.7-16.68-18.13-19.71-36.88-40.08-60.78-49.65C419.87,191.78,415.06,190.83,411.59,190.83Z"/><rect class="cls-5" x="209.42" y="125.6" width="0.97" height="206.16" transform="translate(-78.21 113.16) rotate(-25.6)"/><rect class="cls-5" x="270.43" y="158.49" width="0.97" height="161.68" transform="translate(-24.22 30.6) rotate(-6.19)"/><rect class="cls-5" x="250.98" y="246.6" width="143.47" height="0.97" transform="translate(60.77 557.85) rotate(-87.31)"/><rect class="cls-5" x="313.94" y="279.52" width="83.39" height="0.97" transform="translate(4 565.02) rotate(-77.24)"/><rect class="cls-5" x="150.84" y="245.54" width="0.97" height="113.46" transform="translate(-186.71 303.73) rotate(-63.65)"/><polygon class="cls-5" points="185.16 176.94 171.37 166.51 171.95 165.74 184.2 175 184.25 161.37 185.22 161.37 185.16 176.94"/><polygon class="cls-5" points="205.16 218.53 185.9 204.97 186.46 204.18 204.22 216.68 204.58 193.55 205.55 193.57 205.16 218.53"/><polygon class="cls-5" points="223.85 257.99 205.53 245.18 206.08 244.38 223 256.21 224.92 228.16 225.88 228.23 223.85 257.99"/><polygon class="cls-5" points="243.31 297.06 221.44 279.9 222.04 279.14 242.35 295.08 242.56 264.99 243.53 265 243.31 297.06"/><polygon class="cls-5" points="267.33 205.92 259.97 194.57 260.79 194.04 266.96 203.57 269.47 194.18 270.41 194.43 267.33 205.92"/><polygon class="cls-5" points="271.73 244.1 260.73 228.96 261.51 228.39 271.41 242 277.33 224.17 278.25 224.48 271.73 244.1"/><polygon class="cls-5" points="275.55 281.48 263.76 267.73 264.5 267.1 275.2 279.59 282.07 260.47 282.99 260.8 275.55 281.48"/><polygon class="cls-5" points="279.24 311.88 264.9 298.8 265.56 298.09 278.93 310.29 286.8 293.83 287.68 294.25 279.24 311.88"/><polygon class="cls-5" points="323.46 225.27 316.17 206.1 317.08 205.75 323.41 222.41 328.35 207.92 329.26 208.23 323.46 225.27"/><polygon class="cls-5" points="321.97 261.97 310.1 240.05 310.95 239.59 322.02 260.02 332.55 242.66 333.38 243.16 321.97 261.97"/><polygon class="cls-5" points="320.28 303.8 308.92 280.7 309.78 280.27 320.33 301.71 330.82 282.87 331.66 283.34 320.28 303.8"/><polygon class="cls-5" points="123.42 288.55 111.13 288.23 111.15 287.26 121.75 287.53 115.56 276.36 116.4 275.89 123.42 288.55"/><polygon class="cls-5" points="136.83 302.76 136.77 301.79 147.62 301.04 140.97 292.32 141.74 291.73 149.47 301.88 136.83 302.76"/><polygon class="cls-5" points="161.78 317.28 161.76 316.31 178.85 315.98 166.1 298.2 166.89 297.63 180.71 316.91 161.78 317.28"/><path class="cls-6" d="M54.36,387c-2.18-25,48.28-27.28,92-44,40.2-15.38,78-27,200-33,30.52-1.5,94.1,19.61,114,30,23,12,44,27,47,47Z"/></g></g></svg>