<?xml version="1.0" encoding="UTF-8"?>
<svg width="350px" height="329px" viewBox="0 0 350 329" version="1.1" xmlns="http://www.w3.org/2000/svg" xmlns:xlink="http://www.w3.org/1999/xlink">
    <!-- Generator: Sketch 53.2 (72643) - https://sketchapp.com -->
    <title>like copy 2</title>
    <desc>Created with Sketch.</desc>
    <defs>
        <linearGradient x1="-6.63456168e-05%" y1="49.9989763%" x2="100.003029%" y2="49.9989763%" id="linearGradient-1">
            <stop stop-color="#FF9C5D" offset="0%"></stop>
            <stop stop-color="#FF9898" offset="100%"></stop>
        </linearGradient>
        <linearGradient x1="-6.63456168e-05%" y1="49.9989763%" x2="100.003029%" y2="49.9989763%" id="linearGradient-2">
            <stop stop-color="#FF9C5D" offset="0%"></stop>
            <stop stop-color="#FF9898" offset="100%"></stop>
        </linearGradient>
    </defs>
    <g id="Tidy-UI" stroke="none" stroke-width="1" fill="none" fill-rule="evenodd">
        <g id="like-copy-2" fill-rule="nonzero">
            <g id="_Group_4" transform="translate(3.050847, 4.913574)" fill="url(#linearGradient-2)">
                <path d="M167.305085,55.8215918 L225.476271,55.8215918 C225.722034,55.2658496 237.571186,18.197168 266.084746,0.0321923828 C266.084746,0.0321923828 274.435593,30.5302393 264.644068,73.3393311 C264.881356,73.6781982 298.686441,121.89561 343.357627,134.267651 C344.194915,139.169365 331.571186,207.764556 295.171186,256.292031 C266.945763,293.921538 237.522034,313.458926 205.171186,320.520918 C187.337288,324.417891 176.2,322.384688 176.2,322.384688 L166.771186,322.789634 C166.771186,322.789634 148.874576,322.730332 138.352542,320.519224 C105.950847,313.706299 76.5745763,293.918149 48.3525424,256.290337 C11.9559322,207.764556 -0.66779661,139.169365 0.169491525,134.267651 C44.840678,121.898999 78.6440678,73.6798926 78.8830508,73.3393311 C69.0915254,30.5217676 77.4423729,0.0321923828 77.4423729,0.0321923828 C105.955932,18.197168 117.805085,55.2675439 118.050847,55.8215918 L167.305085,55.8215918" id="Path"></path>
            </g>
            <path d="M163.657627,212.222354 C163.657627,212.222354 223.466101,203.140713 250.879661,212.222354 C278.29322,221.303994 284.210169,232.82209 284.054237,245.797314 C283.898305,258.772539 283.118644,282.12896 269.413559,293.157393 C255.708474,304.185825 229.228813,327.213545 179.544067,324.785562 C129.859322,322.357578 82.3559322,309.536538 75.0355932,289.914434 C67.7152542,270.292329 59.9271186,254.717993 68.1830508,238.660771 C76.4389831,222.60355 81.8881356,208.654082 108.366102,208.162725 C134.844068,207.671367 163.657627,212.222354 163.657627,212.222354 Z" id="Path" fill="#FFFFFF"></path>
            <polygon id="Path" fill="#000000" points="134.80339 207.681533 215.252542 207.681533 175.027118 233.308364"></polygon>
            <path d="M175.027118,236.724146 L124.915254,204.801162 L225.135593,204.801162 L175.027118,236.724146 Z M144.688136,210.561904 L175.027118,229.892583 L205.366101,210.561904 L144.688136,210.561904 Z" id="Shape" fill="#000000"></path>
            <path d="M107.276271,287.669438 C130.638983,300.207524 187.954237,301.378311 212.022033,296.452876 C220.350847,294.748374 228.359322,292.496602 236.208474,289.384106 C243.452542,286.503735 249.918644,282.228926 254.68305,276.207256 C258.906779,270.861626 261.364406,264.084282 259.798305,257.442485 C258.157627,250.495708 252.340677,244.267329 245.242372,241.744463 C237.38305,238.952197 228.594915,240.465239 220.716949,242.379839 C212.552542,244.363906 204.554237,247.320522 196.169491,248.418452 L202.68644,247.571284 C184.835593,249.880664 166.655932,249.638374 148.820339,247.342549 L155.337288,248.189717 C140.083051,246.210732 125.091525,238.221938 109.357627,240.632979 C93.9949153,242.988105 86.8677966,257.789824 92.0694915,270.842988 C94.7457627,277.559336 100.577966,283.440376 107.276271,287.669438 Z" id="Path" fill="#000000"></path>
            <path d="M174.09322,233.310059 L174.09322,258.450615 C174.09322,259.702729 175.957627,259.704424 175.957627,258.450615 L175.957627,233.310059 C175.957627,232.057944 174.09322,232.05625 174.09322,233.310059 Z" id="Path" fill="#000000"></path>
            <path d="M154.461017,60.0862354 C154.461017,60.0862354 155.216949,125.611289 173.364406,180.109604 C173.364406,180.109604 187.730508,141.182236 195.594915,60.0862354" id="Path" fill="#000000"></path>
            <path d="M89.0898305,106.404297 C90.8,106.688945 92.4915254,107.192163 94.1457627,107.712324 C96.0423729,108.310425 97.9118644,109.00002 99.7525424,109.765859 L100.516949,110.089478 L100.90678,110.258911 C101.132203,110.353794 100.442373,110.050508 100.766102,110.196221 L101.028814,110.314824 C101.593785,110.565586 102.150847,110.823125 102.7,111.087441 C103.910169,111.664645 105.103955,112.275171 106.281356,112.919019 C108.990226,114.396021 111.60639,116.03693 114.115254,117.832593 C114.80226,118.322821 115.480226,118.824909 116.149153,119.338857 C116.474576,119.58623 116.79661,119.847158 117.116949,120.092837 C117.250847,120.197886 117.6,120.48084 117.277966,120.219912 C117.476836,120.380309 117.674576,120.541836 117.871186,120.704492 C119.259887,121.848734 120.608475,123.042111 121.916949,124.284624 C124.808466,127.033594 127.486272,129.998791 129.927119,133.154473 C131.069492,134.628545 132.249153,136.280522 133.466102,138.147681 C134.709039,140.052114 135.875141,142.007943 136.964407,144.015166 C142.072881,153.40687 145.354237,163.566108 147.344068,174.299727 C147.632203,175.860774 147.89209,177.427471 148.123729,178.999814 C148.279661,180.038442 149.530508,180.614517 150.423729,180.355283 C151.489831,180.050303 151.883051,178.999814 151.728814,177.961187 C150.033898,166.62269 146.894915,155.494292 141.857627,145.260503 C137.925424,137.271709 132.8,129.886099 126.652542,123.588252 C121.757258,118.574075 116.213887,114.236053 110.169492,110.689272 C105.832181,108.138292 101.248529,106.031169 96.4881356,104.399897 C94.4288136,103.700137 92.3152542,103.044429 90.1745763,102.664897 L90.0847458,102.649648 C89.0898305,102.480215 88.0745763,102.917354 87.7864407,104.005117 C87.5423729,104.933613 88.0898305,106.233169 89.0915254,106.400908 L89.0898305,106.404297 Z" id="Path" fill="#000000"></path>
            <path d="M259.972881,102.649648 C258.220338,102.942769 256.484745,103.461235 254.791525,104.005117 C250.268828,105.458449 245.898027,107.347466 241.740677,109.645562 C235.794569,112.922023 230.298957,116.956039 225.391525,121.646543 C219.198305,127.549609 213.949152,134.537051 209.822033,142.148008 C204.58983,151.793862 201.122033,162.422432 199.111864,173.279736 C198.821469,174.841914 198.561016,176.408611 198.330508,177.979824 C198.176271,179.016758 198.58305,180.072329 199.635593,180.373921 C200.522033,180.628071 201.779661,180.058774 201.935593,179.018452 C202.801061,173.054967 204.112647,167.164756 205.859322,161.397358 C207.322301,156.534326 209.185149,151.800593 211.428813,147.24457 C213.464264,143.096154 215.831862,139.119019 218.508474,135.352026 C218.640677,135.165649 218.772881,134.980967 218.906779,134.796284 C218.964406,134.71665 219.438983,134.072803 219.218644,134.369312 C219.557627,133.917489 219.89661,133.473008 220.235593,133.035869 C220.858193,132.236143 221.49435,131.448841 222.144067,130.673965 C223.411864,129.167135 224.732203,127.711136 226.105084,126.305967 C227.421469,124.959534 228.783616,123.664497 230.191525,122.420854 C230.869491,121.824448 231.553672,121.241032 232.244067,120.670605 L232.728813,120.275825 C232.954237,120.091143 232.369491,120.558779 232.728813,120.275825 L232.945762,120.106392 C233.301694,119.823437 233.659322,119.545566 234.020338,119.26939 C238.687955,115.700336 243.755408,112.686717 249.120338,110.289409 C249.379661,110.1725 249.428813,110.153862 249.120338,110.289409 L249.552542,110.101338 C249.835593,109.98104 250.116949,109.860742 250.399999,109.743833 C250.900566,109.534865 251.402261,109.333239 251.905084,109.138955 C252.821469,108.783145 253.745762,108.444277 254.677966,108.122354 C256.728813,107.42937 258.803389,106.963428 260.888135,106.428018 C260.917579,106.420335 260.947637,106.415233 260.977966,106.412769 C261.974576,106.243335 262.528813,104.952251 262.28305,104.016978 C261.991525,102.912271 260.984745,102.492075 259.984745,102.661509 L259.972881,102.649648 Z" id="Path" fill="#000000"></path>
            <path d="M9.12542369,136.915898 C9.12542369,136.915898 16.2152542,172.529146 38.7762712,193.3627 C38.7762712,193.3627 18.7,150.536665 19.9864407,132.019268 L9.12542369,136.915898 Z" id="Path" fill="#000000"></path>
            <path d="M25.8338983,129.670918 C25.8338983,129.670918 36.140678,174.877495 65.6915254,200.577183 C65.6915254,200.577183 38.5423729,146.685439 39.5355932,122.976597 L25.8338983,129.670918 Z" id="Path" fill="#000000"></path>
            <path d="M340.435593,136.915898 C340.435593,136.915898 333.347457,172.529146 310.78644,193.3627 C310.78644,193.3627 330.861016,150.536665 329.574576,132.019268 L340.435593,136.915898 Z" id="Path" fill="#000000"></path>
            <path d="M323.728813,129.670918 C323.728813,129.670918 313.422033,174.877495 283.871186,200.577183 C283.871186,200.577183 311.020338,146.685439 310.027118,122.976597 L323.728813,129.670918 Z" id="Path" fill="#000000"></path>
            <path d="M94.4254237,71.4399805 L108.338983,63.0055762 C105.313559,48.7324902 89.7389831,33.161543 89.7389831,33.161543 C89.7389831,33.161543 87.1677966,57.8158252 94.4254237,71.4399805 Z" id="Path" fill="#000000"></path>
            <path d="M136.028814,205.421289 C136.028814,205.421289 147.444068,120.306323 54.8169492,115.553711 C54.8169492,115.553711 50.3627119,205.421289 136.028814,205.421289 Z" id="Path" fill="#FFFFFF"></path>
            <path d="M138.252542,207.962793 L136.028814,207.962793 C110.774576,207.962793 90.6610169,200.294229 76.2627119,185.170586 C70.2813559,178.887988 65.3,171.300752 61.4542373,162.615586 C58.3949153,155.709473 56.0440678,148.096821 54.4661017,139.989424 C51.7830508,126.202612 52.2627119,115.853608 52.2779661,115.421553 L52.4033898,112.880049 L54.9457627,113.010513 C84.2288136,114.516777 106.386441,124.077915 120.80339,141.431304 C126.00339,147.690181 130.171186,154.974131 133.19322,163.081528 C135.598305,169.535254 137.284746,176.52439 138.20678,183.850698 C139.776271,196.317622 138.59661,205.382319 138.545763,205.761851 L138.252542,207.962793 Z M57.3237288,118.242622 C57.4098847,125.267811 58.1354764,132.270583 59.4915254,139.164282 C61.0050847,146.881982 63.2457627,154.111714 66.1525424,160.653545 C69.7610169,168.774497 74.4118644,175.851738 79.9762712,181.69042 C92.9389831,195.292549 111.011864,202.407065 133.723729,202.857759 C134.132921,196.673361 133.940493,190.463859 133.149153,184.316641 C132.323158,177.629344 130.727273,171.059795 128.39322,164.738589 C125.571186,157.198794 121.69322,150.436699 116.867797,144.638682 C103.820339,128.962686 83.7966102,120.089448 57.3237288,118.242622 Z" id="Shape" fill="#000000"></path>
            <ellipse id="Oval" fill="#000000" cx="97.7389831" cy="161.673535" rx="26.6576271" ry="28.5698926"></ellipse>
            <path d="M214.177966,205.421289 C214.177966,205.421289 202.762711,120.306323 295.38983,115.553711 C295.38983,115.553711 299.844067,205.421289 214.177966,205.421289 Z" id="Path" fill="#FFFFFF"></path>
            <path d="M214.177966,207.962793 L211.954237,207.962793 L211.659322,205.760156 C211.608474,205.380625 210.428813,196.315928 211.998305,183.849004 C212.920338,176.522695 214.606779,169.53356 217.013559,163.079834 C220.033898,154.972437 224.203389,147.688486 229.403389,141.429609 C243.810169,124.076221 265.976271,114.515083 295.259322,113.008818 L297.801694,112.878354 L297.927118,115.419858 C297.949152,115.853608 298.423728,126.202612 295.738983,139.987729 C294.161016,148.095127 291.810169,155.707778 288.750847,162.613892 C284.905084,171.299058 279.923728,178.879517 273.944067,185.168892 C259.545762,200.294229 239.437288,207.962793 214.177966,207.962793 Z M292.881355,118.242622 C266.38644,120.091143 246.352542,128.97624 233.310169,144.674263 C228.477966,150.492612 224.594915,157.281816 221.774576,164.852109 C219.505084,170.939858 217.913559,177.54438 217.040677,184.480991 C216.26365,190.574379 216.077474,196.72857 216.484745,202.857759 C239.211864,202.40876 257.29322,195.284077 270.257627,181.665005 C275.833898,175.80938 280.491525,168.706724 284.099999,160.558662 C287.005084,153.999888 289.240677,146.751519 290.747457,139.018569 C292.085254,132.171932 292.799476,125.218166 292.881355,118.242622 L292.881355,118.242622 Z" id="Shape" fill="#000000"></path>
            <ellipse id="Oval" fill="#000000" cx="252.467796" cy="161.673535" rx="24.2966102" ry="26.040249"></ellipse>
            <ellipse id="Oval" fill="#000000" cx="252.467796" cy="161.673535" rx="26.6576271" ry="28.5698926"></ellipse>
            <path d="M179.476271,328.172539 C178.444067,328.14543 153.994915,327.494805 139.420339,325.214229 C104.638983,319.77541 76.7220339,300.815791 48.9033898,263.725083 C29.3847458,237.703472 17.1525424,206.741177 10.3288135,185.350186 C3.11694912,162.742661 -0.554237327,142.85624 0.0864406385,139.10498 L0.449152503,136.983672 L2.52372878,136.409292 C12.3728813,133.683105 22.5135593,128.879663 32.6677966,122.151455 C40.8627119,116.721108 49.079661,110.028481 57.0881356,102.259951 C68.4440678,91.2467676 76.0338983,81.3467627 78.5016949,77.9919775 C73.6847458,56.1231836 73.5864407,37.5939258 74.3694915,25.8064307 C75.2457627,12.6414404 77.3457627,4.86274414 77.4338983,4.53912598 L78.6440678,0.0982714844 L82.520339,2.56861328 C94.3661017,10.1168799 104.820339,21.5587305 113.589831,36.5790186 C117.553448,43.3646501 120.932847,50.4748328 123.691525,57.8327686 L179.491525,57.8327686 L179.491525,64.6101123 L119.127119,64.6101123 L118.220339,62.6057129 C118.145763,62.4362793 118.105085,62.3244531 118,62.021167 C116.559322,57.890376 113.308475,49.5356055 107.738983,39.9947998 C100.555932,27.6905322 92.2355932,17.990459 82.9576271,11.0945117 C82.0530647,16.181951 81.4390763,21.3167608 81.1186441,26.473999 C80.3661017,38.0395361 80.5050847,56.3637793 85.4474576,77.9818115 L85.7711864,79.3931934 L84.9237288,80.6842773 C84.5644068,81.1925781 75.9864407,93.3765479 61.8118644,107.126084 C53.5067797,115.184346 44.9610169,122.141289 36.4169492,127.796982 C26.5389831,134.342202 16.6254237,139.172754 6.90677963,142.176812 C7.53050844,147.890112 10.4949152,163.740625 17.0762712,184.150596 C23.7237288,204.794385 35.5847458,234.653667 54.3389831,259.655288 C68.1101695,278.015112 81.7389831,291.590132 96.0050847,301.156353 C109.623729,310.287129 124.171186,315.964849 140.479661,318.514824 C154.623729,320.717461 179.415254,321.395195 179.664406,321.395195 L179.476271,328.172539 Z" id="Path" fill="#000000"></path>
            <path d="M77.8983051,295.527769 C77.6288136,295.25498 71.2237288,288.750425 66.6610169,277.567808 C64.0031742,271.109011 62.4946169,264.235668 62.2033898,257.257803 C61.8644068,248.616689 63.4288136,239.858667 66.8644068,231.207388 C69.9542373,223.426997 75.6220339,217.200312 83.7067797,212.701851 C90.0644068,209.165771 97.9440678,206.690347 107.133898,205.34335 C120.862712,203.330479 133.983051,204.304722 140.583051,205.063784 L140.922034,205.102754 C139.170732,204.983051 137.617728,206.219664 137.342799,207.9528 C137.06787,209.685934 138.161977,211.342175 139.864407,211.769966 L141.418644,205.173916 C143.176221,205.583789 144.308608,207.29331 144,209.070889 C143.728814,210.6229 142.330508,212.076641 140.184746,211.847905 L139.811864,211.805547 C133.540678,211.08376 121.086441,210.156958 108.116949,212.056309 C99.7440678,213.284702 92.640678,215.495811 87.0033898,218.632026 C80.320339,222.359565 75.6644068,227.42563 73.1661017,233.711616 C70.0813559,241.476758 68.6728814,249.309673 68.9779661,256.990098 C69.2360817,263.18327 70.5748631,269.28371 72.9338983,275.016138 C76.9881356,284.943252 82.6440678,290.693828 82.7016949,290.749741 L77.8983051,295.527769 Z" id="Path" fill="#000000"></path>
            <path d="M255.338983,71.4399805 L241.427118,63.0055762 C244.450847,48.7324902 260.027118,33.161543 260.027118,33.161543 C260.027118,33.161543 262.598305,57.8158252 255.338983,71.4399805 Z" id="Path" fill="#000000"></path>
            <ellipse id="Oval" fill="#000000" cx="121.116949" cy="90.8214893" rx="5.97288136" ry="6.40628418"></ellipse>
            <ellipse id="Oval" fill="#000000" cx="228.938983" cy="90.8214893" rx="5.97288136" ry="6.40628418"></ellipse>
            <ellipse id="Oval" fill="#000000" cx="150.147458" cy="192.191914" rx="2.68813559" ry="2.88206543"></ellipse>
            <ellipse id="Oval" fill="#000000" cx="198.662711" cy="192.191914" rx="2.68813559" ry="2.88206543"></ellipse>
            <path d="M170.29661,327.68457 L170.238983,320.907227 C170.525423,320.907227 199.123728,320.64291 209.454237,319.312856 C224.932203,317.318623 239.294915,311.67479 253.362711,302.056045 C267.811864,292.174678 281.59661,278.359062 295.505084,259.817944 C314.259322,234.814629 326.120338,204.957041 332.767796,184.313252 C339.338983,163.903281 342.305084,148.054463 342.937288,142.339468 C333.218644,139.333716 323.305084,134.504858 313.427118,127.959639 C304.88305,122.297168 296.338983,115.340225 288.032203,107.28874 C273.862711,93.5459814 265.279661,81.3654004 264.920338,80.8486279 L264.072881,79.6490381 L264.38644,78.1444678 C271.674576,46.2909521 268.68983,21.2944141 266.872881,11.262251 C257.598305,18.1581982 249.277966,27.8582715 242.094915,40.1608447 C236.525423,49.6999561 233.281355,58.0547266 231.833898,62.1872119 C231.728813,62.490498 231.688135,62.6040186 231.620338,62.7582031 L230.725423,64.7693799 L228.522033,64.7693799 L170.338983,64.7693799 L170.338983,57.9920361 L226.135593,57.9920361 C228.894523,50.6336634 232.27391,43.5229387 236.237288,36.7365918 C245.006779,21.7163037 255.461016,10.2744531 267.306779,2.72788086 L271.18644,0.260927734 L272.401694,4.69331055 C272.48983,5.01862305 274.58983,12.7973193 275.466101,25.9606152 C276.250847,37.756582 276.144067,56.2892285 271.333898,78.1461621 C273.801694,81.5009473 281.39322,91.3992578 292.747457,102.414136 C300.755932,110.180972 308.971186,116.873599 317.167796,122.30564 C327.322033,129.033848 337.462711,133.827124 347.311864,136.555005 L349.38644,137.129385 L349.749152,139.250693 C350.38983,143.010425 346.718644,162.896846 339.506779,185.506064 C332.68305,206.897056 320.450847,237.861045 300.932203,263.880962 C286.572881,283.026958 272.266101,297.340708 257.203389,307.645659 C249.759322,312.728667 242.037288,316.859458 234.250847,319.902485 C226.558074,322.913564 218.525423,324.971683 210.332203,326.030898 C199.58983,327.420254 171.488135,327.68457 170.29661,327.68457 Z" id="Path" fill="#000000"></path>
            <path d="M101.983051,231.627583 L96.6101695,228.420205 L83.7661017,220.761807 L68.2355932,211.502261 L54.7457627,203.460942 C52.5728814,202.16647 50.4288136,200.790669 48.2169492,199.56397 L48.1237288,199.508057 C46.0322034,198.261025 44.1474576,201.624282 46.2372881,202.869619 L51.6152542,206.076997 L64.459322,213.735396 L79.9881356,222.994941 L93.4728814,231.03626 C95.6457627,232.330732 97.7898305,233.706533 100,234.933232 C100.032203,234.950176 100.062712,234.970508 100.094915,234.989146 C102.184746,236.236177 104.071186,232.87292 101.981356,231.627583 L101.983051,231.627583 Z" id="Path" fill="#000000"></path>
            <path d="M92.2898305,236.732617 L75.6576271,230.107764 L49.1779661,219.562217 L43.1423729,217.157954 C42.2,216.783506 41.0932203,217.574761 40.8440678,218.513423 C40.5542373,219.609658 41.2016949,220.529683 42.1491525,220.90752 L58.7813559,227.530679 L85.2542373,238.083003 L91.2898305,240.487266 C92.2322034,240.861714 93.3389831,240.070459 93.5881356,239.131797 C93.8779661,238.035562 93.2305085,237.115537 92.2830508,236.7377 L92.2898305,236.732617 Z" id="Path" fill="#000000"></path>
            <path d="M88.1067797,246.759697 L74.2372881,244.004707 L52.1559322,239.619766 L47.1237288,238.620107 C46.1338983,238.423564 45.1067797,238.908145 44.8254237,239.975576 C44.5728814,240.927793 45.1338983,242.178213 46.1305085,242.369673 L60,245.128052 L82.0813559,249.512993 L87.1135593,250.512651 C88.1050847,250.709194 89.1305085,250.224614 89.4135593,249.157183 C89.6644068,248.204966 89.1033898,246.954546 88.1067797,246.763086 L88.1067797,246.759697 Z" id="Path" fill="#000000"></path>
            <path d="M249.959322,234.989146 L255.337288,231.781768 L268.181355,224.123369 L283.711864,214.863823 L297.194915,206.822505 C299.366101,205.528032 301.601694,204.30811 303.723728,202.925532 C303.754237,202.9052 303.78644,202.888257 303.816949,202.869619 C305.903389,201.624282 304.023728,198.261025 301.930508,199.508057 L296.552542,202.715435 L283.708474,210.373833 L268.177966,219.633379 L254.694915,227.674697 C252.523728,228.96917 250.288135,230.189092 248.166101,231.57167 C248.135593,231.592002 248.103389,231.608945 248.072881,231.627583 C245.98644,232.87292 247.866101,236.236177 249.959322,234.989146 L249.959322,234.989146 Z" id="Path" fill="#000000"></path>
            <path d="M258.759322,240.487266 L275.391525,233.862412 L301.864406,223.313477 L307.899999,220.910908 C308.842372,220.534766 309.491525,219.599492 309.205084,218.516812 C308.957627,217.576455 307.849152,216.778423 306.906779,217.161343 L290.274576,223.786196 L263.801694,234.32666 L257.766101,236.730923 C256.823728,237.107065 256.174576,238.042339 256.461016,239.12502 C256.708474,240.065376 257.816949,240.861714 258.759322,240.480488 L258.759322,240.487266 Z" id="Path" fill="#000000"></path>
            <path d="M262.942372,250.512651 L276.813559,247.757661 L298.89322,243.37272 L303.925423,242.373062 C304.918644,242.176519 305.48305,240.93457 305.230508,239.978965 C304.945762,238.897979 303.927118,238.42187 302.932203,238.623496 L289.061016,241.378486 L266.979661,245.763428 L261.949152,246.763086 C260.955932,246.959629 260.391525,248.201577 260.642372,249.157183 C260.928813,250.238169 261.947457,250.714277 262.942372,250.512651 Z" id="Path" fill="#000000"></path>
            <path d="M271.757627,295.527769 L266.949152,290.748047 L269.352542,293.138755 L266.949152,290.748047 C267.006779,290.690439 272.798305,284.753486 276.823728,274.753516 C279.140181,269.041957 280.444394,262.970899 280.677966,256.812192 C280.957627,249.187681 279.545762,241.414067 276.484745,233.708228 C273.98644,227.417158 269.330508,222.342622 262.645762,218.628638 C257.010169,215.492422 249.906779,213.281313 241.532203,212.05292 C228.569491,210.153569 216.108474,211.080371 209.837288,211.802158 L209.466101,211.844517 C207.318644,212.073252 205.922033,210.619512 205.649152,209.0675 C205.340661,207.289396 206.473942,205.57965 208.232203,205.170527 L209.78644,211.766577 C211.488871,211.338786 212.582977,209.682546 212.308049,207.949411 C212.03312,206.216275 210.480115,204.979662 208.728813,205.099365 L209.067796,205.060396 C215.667796,204.301333 228.78983,203.32709 242.516949,205.339961 C251.705084,206.69543 259.58644,209.162383 265.944067,212.698462 C274.028813,217.196924 279.694915,223.423608 282.78644,231.203999 C286.222033,239.855278 287.78983,248.620078 287.445762,257.254414 C287.157838,264.234383 285.650957,271.110231 282.99322,277.571196 C278.433898,288.745342 272.033898,295.25498 271.757627,295.527769 Z" id="Path" fill="#000000"></path>
            <path d="M131.884746,79.350835 C133.681356,78.9865527 135.477966,78.70021 137.276271,78.4392822 C139.074576,78.1783545 140.869492,77.9513135 142.667797,77.7395215 C146.261017,77.3306218 149.855367,77.0024854 153.450847,76.7551123 C160.640678,76.2468115 167.830508,76.0282422 175.020338,76.0045215 C182.210169,75.9808008 189.401694,76.1739551 196.59322,76.6415918 C200.18983,76.8675032 203.785876,77.1786963 207.381355,77.5751709 C209.179661,77.7801855 210.977966,77.9936719 212.776271,78.2529053 C214.574576,78.5121387 216.372881,78.7849268 218.171186,79.144126 C216.374576,79.5101025 214.577966,79.7981396 212.779661,80.0607617 C210.981355,80.3233838 209.18644,80.5504248 207.388135,80.7639111 C203.794915,81.1739404 200.200566,81.5026416 196.605084,81.7500146 C189.415254,82.2583154 182.225423,82.4751904 175.035593,82.4904395 C167.845763,82.5056885 160.654237,82.3125342 153.462712,81.8432031 C149.866102,81.6172917 146.270056,81.3066634 142.674576,80.9113184 C140.876271,80.707998 139.077966,80.4945117 137.279661,80.233584 C135.481356,79.9726562 133.683051,79.7066455 131.884746,79.350835 Z" id="Path" fill="#000000"></path>
            <path d="M212.372881,102.322642 C210.835593,102.681841 209.298305,102.963101 207.761016,103.22064 C206.223728,103.478179 204.68644,103.700137 203.149152,103.90854 C200.074576,104.311792 196.999999,104.630892 193.925423,104.86584 C187.776271,105.352114 181.627118,105.558823 175.477966,105.565601 C169.328814,105.572378 163.179661,105.358892 157.030508,104.876006 C153.955932,104.63541 150.881356,104.315181 147.80678,103.915317 C146.269492,103.706914 144.732203,103.488345 143.194915,103.225723 C141.657627,102.963101 140.120339,102.685229 138.583051,102.322642 C140.120339,101.958359 141.657627,101.675405 143.194915,101.417866 C144.732203,101.160327 146.271186,100.936675 147.79661,100.728271 C150.871186,100.32276 153.945763,100.002531 157.020339,99.767583 C163.169492,99.2846973 169.318644,99.0779883 175.467796,99.0779883 C181.616949,99.0779883 187.766101,99.2914746 193.915254,99.777749 C196.98983,100.018345 200.064406,100.337445 203.138983,100.735049 C204.676271,100.943452 206.213559,101.162021 207.750847,101.422949 C209.288135,101.683877 210.832203,101.961748 212.372881,102.322642 Z" id="Path" fill="#000000"></path>
            <path d="M206.752542,122.902046 C205.430508,123.262939 204.108474,123.544199 202.788135,123.801738 C201.467796,124.059277 200.144067,124.286318 198.822033,124.489639 C196.177966,124.891761 193.533898,125.210861 190.88983,125.446938 C185.603389,125.931519 180.315254,126.138228 175.027118,126.145005 C169.738983,126.151782 164.452542,125.938296 159.166102,125.45541 C156.522034,125.215944 153.877966,124.896279 151.233898,124.496416 C149.911864,124.295355 148.589831,124.064925 147.267797,123.805127 C145.945763,123.547588 144.625424,123.264634 143.30339,122.902046 C144.625424,122.539458 145.945763,122.256504 147.267797,121.997271 C148.589831,121.738037 149.911864,121.509302 151.233898,121.305981 C153.877966,120.903859 156.522034,120.584194 159.166102,120.346987 C164.452542,119.864102 169.740677,119.657393 175.027118,119.659087 C180.313559,119.660781 185.603389,119.872573 190.88983,120.357153 C193.533898,120.597749 196.177966,120.916849 198.822033,121.314453 C200.144067,121.516644 201.466101,121.745944 202.788135,122.002354 C204.108474,122.259893 205.423728,122.541152 206.752542,122.902046 Z" id="Path" fill="#000000"></path>
            <path d="M200.39322,141.507549 C199.335593,141.866748 198.279661,142.149702 197.222033,142.405547 C196.164406,142.661392 195.108474,142.890127 194.052542,143.093447 C191.937288,143.49557 189.823164,143.81467 187.710169,144.050747 C183.499066,144.522867 179.264618,144.756494 175.027118,144.750508 C170.79033,144.761561 166.556352,144.531323 162.345763,144.060913 C160.231638,143.821447 158.117514,143.501782 156.00339,143.101919 C154.947458,142.896904 153.889831,142.673252 152.833898,142.41063 C151.777966,142.148008 150.720339,141.870137 149.662712,141.507549 C150.720339,141.144961 151.776271,140.860313 152.833898,140.602773 C153.891525,140.345234 154.947458,140.116499 156.00339,139.911484 C158.116949,139.508232 160.240678,139.193086 162.345763,138.95249 C170.775552,138.029634 179.281123,138.033043 187.710169,138.962656 C189.824294,139.202122 191.938418,139.521222 194.052542,139.919956 C195.108474,140.123276 196.166101,140.345234 197.222033,140.607856 C198.277966,140.870479 199.335593,141.146655 200.39322,141.507549 Z" id="Path" fill="#000000"></path>
            <path d="M111.481356,244.492676 C111.481356,244.492676 121.916949,244.169058 127.211864,245.953193 L118.489831,261.847759 L111.481356,244.492676 Z" id="Path" fill="#FFFFFF"></path>
            <path d="M238.262711,244.492676 C238.262711,244.492676 227.827118,244.169058 222.532203,245.953193 L231.254237,261.847759 L238.262711,244.492676 Z" id="Path" fill="#FFFFFF"></path>
            <path d="M146.610169,290.748047 C146.610169,290.748047 136.174576,291.015752 130.888136,289.202812 L139.688136,273.355688 L146.610169,290.748047 Z" id="Path" fill="#FFFFFF"></path>
            <path d="M203.466101,290.748047 C203.466101,290.748047 213.903389,291.015752 219.18983,289.202812 L210.388135,273.355688 L203.466101,290.748047 Z" id="Path" fill="#FFFFFF"></path>
        </g>
    </g>
</svg>